<svg width="232" height="233" viewBox="0 0 232 233" fill="none" xmlns="http://www.w3.org/2000/svg">
<path d="M41.3067 109.754L12.2695 107.986L13.1067 96.5395C13.2676 94.3389 13.8254 92.4898 14.7799 90.9921C15.725 89.4939 16.9692 88.3838 18.5126 87.6619C20.0473 86.9301 21.7787 86.6228 23.7069 86.7402C25.6352 86.8576 27.3062 87.3767 28.7199 88.2976C30.1337 89.2185 31.1941 90.4926 31.9011 92.1199C32.6087 93.7377 32.8811 95.6611 32.7181 97.89L32.1845 105.186L27.2646 104.886L27.7257 98.5821C27.812 97.4016 27.6799 96.4164 27.3294 95.6267C26.9702 94.8269 26.4405 94.216 25.7403 93.7939C25.0313 93.3618 24.1995 93.1167 23.2448 93.0585C22.2807 92.9999 21.4253 93.1422 20.6786 93.4857C19.9232 93.8192 19.3186 94.3611 18.865 95.1114C18.4019 95.8611 18.1269 96.8309 18.0398 98.0209L17.7373 102.158L41.7553 103.62L41.3067 109.754Z" fill="#0057FF"/>
<path d="M45.0745 54.4413C47.9357 55.8114 50.0701 57.4982 51.4776 59.5017C52.8898 61.4971 53.6108 63.6431 53.6406 65.9397C53.6666 68.224 53.0398 70.4784 51.7602 72.7029C50.4712 74.9439 48.7849 76.7014 46.7012 77.9756C44.6175 79.2497 42.2746 79.9234 39.6725 79.9966C37.0705 80.0698 34.3431 79.4235 31.4904 78.0575C28.6291 76.6875 26.4924 75.0048 25.0801 73.0094C23.6679 71.014 22.9488 68.8742 22.9229 66.5899C22.8884 64.3015 23.5156 62.0368 24.8046 59.7959C26.0842 57.5714 27.7658 55.822 29.8495 54.5479C31.9294 53.2614 34.2703 52.5816 36.8724 52.5084C39.4792 52.427 42.2132 53.0713 45.0745 54.4413ZM41.9653 59.8467C40.1119 58.9592 38.3954 58.4776 36.8159 58.4018C35.2411 58.3178 33.8486 58.5985 32.6386 59.244C31.4285 59.8895 30.4528 60.8567 29.7115 62.1454C28.9702 63.4342 28.6521 64.7162 28.7574 65.9915C28.8626 67.2668 29.3981 68.4759 30.3638 69.6189C31.3342 70.7536 32.7461 71.7647 34.5995 72.6521C36.453 73.5396 38.1671 74.0253 39.7419 74.1093C41.3214 74.1851 42.7162 73.9003 43.9263 73.2548C45.1364 72.6093 46.1121 71.6422 46.8534 70.3534C47.5947 69.0647 47.9127 67.7826 47.8075 66.5073C47.7022 65.232 47.1644 64.027 46.194 62.8923C45.2283 61.7493 43.8187 60.7342 41.9653 59.8467Z" fill="#0057FF"/>
<path d="M63.0802 58.7025L43.9882 36.7531L53.2843 30.022C55.0638 28.7335 56.8404 27.9304 58.6141 27.6126C60.3893 27.2821 62.076 27.4175 63.674 28.0188C65.2736 28.6073 66.7041 29.6268 67.9658 31.0772C69.2336 32.5348 69.9868 34.0331 70.2254 35.5722C70.4578 37.1041 70.1759 38.6124 69.3798 40.0972C68.5913 41.5764 67.292 42.9714 65.4818 44.2821L59.2575 48.789L56.0134 45.0593L61.4323 41.1356C62.3834 40.4469 63.0678 39.7534 63.4854 39.0551C63.9031 38.3567 64.054 37.6535 63.9382 36.9455C63.8301 36.232 63.4621 35.5144 62.8344 34.7927C62.2005 34.0639 61.5088 33.5633 60.7593 33.2909C60.0175 33.0129 59.2164 32.9758 58.356 33.1795C57.4971 33.3705 56.5883 33.8132 55.6295 34.5074L52.27 36.94L68.0619 55.0953L63.0802 58.7025ZM67.1166 39.5001L81.6611 45.2485L76.1616 49.2306L61.7436 43.3905L67.1166 39.5001Z" fill="#0057FF"/>
<path d="M77.6639 22.1669L76.1222 17.3359L99.2134 11.2016L100.755 16.0326L92.1474 18.3193L99.4499 41.2022L93.5742 42.7632L86.2716 19.8802L77.6639 22.1669Z" fill="#0057FF"/>
<path d="M113.459 39.0149L116.375 10.0705L135.569 11.6803L135.061 16.7258L121.996 15.63L121.301 22.5269L133.092 23.5158L132.584 28.5613L120.793 27.5724L119.588 39.5289L113.459 39.0149Z" fill="#0057FF"/>
<path d="M170.689 40.1421C169.071 42.871 167.156 44.9264 164.942 46.3084C162.738 47.6946 160.41 48.436 157.96 48.5324C155.523 48.625 153.154 48.1034 150.853 46.9676C148.535 45.8235 146.754 44.2917 145.51 42.3722C144.266 40.4528 143.676 38.2719 143.741 35.8295C143.806 33.3872 144.645 30.8057 146.258 28.085C147.876 25.3562 149.787 23.2987 151.992 21.9125C154.197 20.5262 156.518 19.7869 158.954 19.6944C161.396 19.5937 163.776 20.1154 166.094 21.2595C168.395 22.3952 170.168 23.9228 171.412 25.8423C172.669 27.7579 173.265 29.9368 173.2 32.3791C173.144 34.8256 172.307 37.4133 170.689 40.1421ZM165.097 37.3824C166.145 35.6148 166.753 33.9879 166.92 32.5018C167.097 31.0199 166.874 29.7201 166.252 28.6026C165.63 27.485 164.653 26.5972 163.32 25.9393C161.986 25.2813 160.637 25.0208 159.272 25.1577C157.906 25.2946 156.588 25.8337 155.316 26.775C154.053 27.7205 152.898 29.0771 151.85 30.8447C150.802 32.6123 150.19 34.2371 150.014 35.7191C149.846 37.2052 150.073 38.507 150.695 39.6246C151.317 40.7422 152.294 41.6299 153.627 42.2879C154.961 42.9458 156.31 43.2064 157.675 43.0695C159.041 42.9326 160.355 42.3914 161.618 41.4459C162.89 40.5046 164.049 39.1501 165.097 37.3824Z" fill="#0057FF"/>
<path d="M168.37 55.9229L191.793 38.6714L195.869 43.2779L176.528 57.5221L184.792 66.8627L180.709 69.8699L168.37 55.9229Z" fill="#0057FF"/>
<path d="M213.391 69.3838L186.416 80.2753L183.732 74.7414L210.707 63.8498L213.391 69.3838Z" fill="#0057FF"/>
<path d="M207.47 110.956C204.311 111.245 201.557 110.893 199.21 109.901C196.863 108.917 194.993 107.453 193.598 105.508C192.213 103.572 191.381 101.328 191.1 98.7771C190.818 96.2074 191.149 93.8477 192.094 91.698C193.039 89.5484 194.554 87.7792 196.64 86.3903C198.725 85.0015 201.343 84.163 204.493 83.8748C207.652 83.5857 210.405 83.9327 212.751 84.916C215.098 85.8992 216.963 87.3591 218.348 89.2955C219.742 91.2312 220.58 93.4838 220.862 96.0536C221.143 98.6045 220.811 100.955 219.866 103.104C218.931 105.263 217.421 107.036 215.336 108.425C213.251 109.823 210.629 110.667 207.47 110.956ZM206.788 104.757C208.835 104.57 210.527 104.106 211.865 103.366C213.204 102.635 214.176 101.686 214.781 100.518C215.386 99.35 215.607 98.0272 215.445 96.5494C215.282 95.0715 214.777 93.8152 213.93 92.7803C213.083 91.7454 211.923 90.9864 210.451 90.5031C208.979 90.0292 207.221 89.8859 205.174 90.0732C203.128 90.2605 201.435 90.7196 200.096 91.4506C198.758 92.191 197.787 93.1451 197.182 94.3129C196.577 95.4807 196.356 96.8035 196.518 98.2813C196.681 99.7592 197.185 101.016 198.033 102.05C198.88 103.085 200.039 103.84 201.51 104.313C202.983 104.797 204.742 104.945 206.788 104.757Z" fill="#0057FF"/>
<path d="M192.604 121.969L221.646 123.647L220.831 135.095C220.674 137.296 220.12 139.147 219.168 140.647C218.226 142.148 216.984 143.262 215.442 143.989C213.908 144.725 212.177 145.038 210.249 144.927C208.32 144.815 206.648 144.301 205.232 143.385C203.817 142.468 202.754 141.198 202.044 139.573C201.333 137.957 201.057 136.035 201.216 133.806L201.735 126.509L206.656 126.793L206.207 133.098C206.123 134.279 206.257 135.263 206.609 136.052C206.97 136.851 207.501 137.46 208.202 137.88C208.912 138.31 209.744 138.552 210.699 138.607C211.663 138.663 212.518 138.518 213.264 138.172C214.019 137.836 214.623 137.293 215.075 136.541C215.537 135.79 215.81 134.819 215.895 133.629L216.189 129.492L192.167 128.104L192.604 121.969Z" fill="#0057FF"/>
<path d="M188.793 177.291C185.924 175.938 183.783 174.266 182.371 172.275C180.955 170.293 180.231 168.157 180.201 165.868C180.174 163.591 180.802 161.341 182.084 159.118C183.376 156.879 185.066 155.12 187.155 153.84C189.244 152.561 191.593 151.879 194.202 151.795C196.811 151.71 199.546 152.343 202.407 153.692C205.276 155.044 207.419 156.712 208.836 158.695C210.252 160.677 210.974 162.807 211.001 165.084C211.036 167.365 210.408 169.625 209.116 171.864C207.834 174.087 206.148 175.838 204.059 177.117C201.974 178.409 199.627 179.097 197.018 179.181C194.404 179.274 191.663 178.644 188.793 177.291ZM191.909 171.889C193.768 172.766 195.489 173.238 197.073 173.307C198.652 173.384 200.048 173.098 201.261 172.449C202.474 171.8 203.452 170.832 204.195 169.544C204.938 168.256 205.257 166.977 205.151 165.706C205.045 164.435 204.508 163.233 203.539 162.098C202.566 160.971 201.149 159.969 199.291 159.093C197.432 158.217 195.713 157.74 194.134 157.663C192.55 157.595 191.152 157.885 189.939 158.534C188.726 159.182 187.748 160.151 187.005 161.438C186.262 162.726 185.943 164.006 186.049 165.276C186.155 166.547 186.695 167.746 187.668 168.872C188.637 170.007 190.051 171.013 191.909 171.889Z" fill="#0057FF"/>
<path d="M170.537 173.16L189.78 194.977L180.474 201.693C178.692 202.979 176.912 203.781 175.132 204.101C173.352 204.432 171.658 204.301 170.052 203.705C168.444 203.122 167.005 202.109 165.733 200.668C164.455 199.219 163.694 197.729 163.448 196.197C163.21 194.672 163.487 193.17 164.281 191.691C165.067 190.217 166.366 188.826 168.179 187.519L174.41 183.022L177.68 186.729L172.255 190.644C171.302 191.331 170.618 192.023 170.201 192.718C169.785 193.414 169.636 194.115 169.754 194.819C169.866 195.529 170.237 196.243 170.87 196.96C171.509 197.685 172.205 198.182 172.959 198.452C173.704 198.727 174.508 198.763 175.371 198.559C176.233 198.367 177.143 197.925 178.103 197.232L181.467 194.805L165.55 176.759L170.537 173.16ZM166.555 192.282L151.935 186.584L157.441 182.611L171.934 188.4L166.555 192.282Z" fill="#0057FF"/>
<path d="M155.824 209.639L157.39 214.462L134.301 220.605L132.735 215.782L141.342 213.492L133.922 190.647L139.797 189.084L147.217 211.929L155.824 209.639Z" fill="#0057FF"/>
<path d="M119.676 192.88L116.809 221.829L97.6096 220.283L98.1095 215.236L111.178 216.289L111.861 209.391L100.067 208.441L100.567 203.395L112.361 204.345L113.546 192.386L119.676 192.88Z" fill="#0057FF"/>
<path d="M62.0752 192.035C63.6965 189.308 65.6167 187.251 67.8357 185.864C70.0461 184.473 72.3798 183.724 74.8367 183.617C77.2801 183.514 79.6559 184.023 81.964 185.145C84.2892 186.275 86.0758 187.794 87.3239 189.702C88.5719 191.609 89.1638 193.78 89.0996 196.215C89.0354 198.649 88.1951 201.225 86.5786 203.944C84.9573 206.671 83.0414 208.73 80.8309 210.121C78.6204 211.512 76.2934 212.259 73.8499 212.362C71.4016 212.473 69.0149 211.964 66.6897 210.834C64.3816 209.712 62.6035 208.197 61.3555 206.289C60.0941 204.386 59.4955 202.217 59.5597 199.783C59.6153 197.344 60.4538 194.761 62.0752 192.035ZM67.6836 194.761C66.6334 196.527 66.0245 198.151 65.857 199.633C65.681 201.11 65.9049 202.405 66.5287 203.516C67.1525 204.627 68.133 205.507 69.4702 206.157C70.8074 206.807 72.1605 207.061 73.5297 206.919C74.8988 206.776 76.2208 206.233 77.4955 205.289C78.7617 204.342 79.9199 202.984 80.9702 201.218C82.0204 199.452 82.6335 197.83 82.8096 196.352C82.9771 194.87 82.7489 193.574 82.1251 192.463C81.5013 191.352 80.5208 190.471 79.1836 189.821C77.8464 189.171 76.4933 188.918 75.1241 189.06C73.755 189.203 72.4373 189.748 71.1711 190.696C69.8963 191.639 68.7338 192.994 67.6836 194.761Z" fill="#0057FF"/>
<path d="M64.0434 176.248L40.5918 193.462L36.4844 188.884L55.8481 174.671L47.5196 165.387L51.6076 162.387L64.0434 176.248Z" fill="#0057FF"/>
<path d="M18.7004 162.806L45.6806 151.927L48.3981 157.445L21.4178 168.323L18.7004 162.806Z" fill="#0057FF"/>
<path d="M24.418 121.2C27.5766 120.905 30.3316 121.252 32.683 122.24C35.0333 123.219 36.9094 124.68 38.3114 126.622C39.7029 128.555 40.5433 130.797 40.8327 133.347C41.1242 135.916 40.8013 138.276 39.8638 140.427C38.9264 142.577 37.4171 144.349 35.3359 145.741C33.2547 147.134 30.6395 147.977 27.4902 148.27C24.3316 148.565 21.5771 148.223 19.2268 147.244C16.8765 146.265 15.0056 144.809 13.6142 142.875C12.2133 140.943 11.3671 138.692 11.0755 136.123C10.7861 133.573 11.1102 131.223 12.0476 129.072C12.9745 126.913 14.4786 125.137 16.5598 123.744C18.6399 122.343 21.2593 121.495 24.418 121.2ZM25.1212 127.396C23.0751 127.587 21.3844 128.054 20.0489 128.796C18.7124 129.53 17.7435 130.48 17.1425 131.649C16.5414 132.818 16.3247 134.141 16.4924 135.618C16.66 137.095 17.1693 138.35 18.0203 139.384C18.8712 140.417 20.0339 141.174 21.5081 141.654C22.9814 142.125 24.741 142.265 26.7871 142.074C28.8331 141.884 30.5244 141.421 31.8609 140.688C33.1964 139.946 34.1647 138.99 34.7657 137.821C35.3668 136.653 35.5835 135.33 35.4159 133.852C35.2482 132.375 34.7389 131.12 33.8879 130.087C33.037 129.054 31.8749 128.302 30.4017 127.83C28.9274 127.35 27.1672 127.205 25.1212 127.396Z" fill="#0057FF"/>
</svg>
