<svg width="295" height="295" viewBox="0 0 295 295" fill="none" xmlns="http://www.w3.org/2000/svg">
<path d="M266 146C266 211.17 213.17 264 148 264M266 146C266 80.8304 213.17 28 148 28M266 146H30M148 264C82.8304 264 30 211.17 30 146M148 264C187.212 264 219 211.17 219 146C219 80.8304 187.212 28 148 28M148 264C108.788 264 77 211.17 77 146C77 80.8304 108.788 28 148 28M148 264C161.255 264 172 211.17 172 146C172 80.8304 161.255 28 148 28M148 264C134.745 264 124 211.17 124 146C124 80.8304 134.745 28 148 28M30 146C30 80.8304 82.8304 28 148 28M60 68H236.5M59.5 224H236.5" stroke="#535151" stroke-width="4"/>
<path d="M147.5 1.5C166.673 1.5 185.658 5.2764 203.372 12.6136C221.085 19.9508 237.18 30.7051 250.738 44.2624C264.295 57.8198 275.049 73.9147 282.386 91.6282C289.724 109.342 293.5 128.327 293.5 147.5C293.5 166.673 289.724 185.658 282.386 203.372C275.049 221.085 264.295 237.18 250.738 250.738C237.18 264.295 221.085 275.049 203.372 282.386C185.658 289.724 166.673 293.5 147.5 293.5" stroke="#535151" stroke-width="3"/>
</svg>
