<svg width="118" height="118" viewBox="0 0 118 118" fill="none" xmlns="http://www.w3.org/2000/svg">
<g clip-path="url(#clip0_54_2250)">
<path fill-rule="evenodd" clip-rule="evenodd" d="M63.2144 0H54.7857V37.3193L40.8056 2.71743L32.9908 5.87484L47.333 41.3731L20.2607 14.3007L14.3008 20.2607L40.2484 46.2083L6.62222 31.5167L3.24771 39.2402L38.8282 54.7857H0V63.2144H38.8281L3.24772 78.7597L6.62222 86.4834L40.2484 71.7918L14.3008 97.7394L20.2607 103.699L47.333 76.6268L32.9908 112.125L40.8056 115.282L54.7857 80.6807V118H63.2144V80.6807L77.1944 115.282L85.009 112.125L70.6672 76.6268L97.7394 103.699L103.699 97.7394L77.7514 71.7918L111.378 86.4834L114.752 78.7597L79.1721 63.2144H118V54.7857H79.1715L114.752 39.2402L111.378 31.5167L77.7514 46.2083L103.699 20.2606L97.7394 14.3007L70.6672 41.373L85.009 5.87484L77.1944 2.71743L63.2144 37.3193V0Z" fill="#0057FF"/>
</g>
<defs>
<clipPath id="clip0_54_2250">
<rect width="118" height="118" fill="white"/>
</clipPath>
</defs>
</svg>
