<svg width="802" height="429" viewBox="0 0 802 429" fill="none" xmlns="http://www.w3.org/2000/svg">
<path d="M205.5 180.562L205.125 190H154.75C155.333 177.083 155.625 162.833 155.625 147.25C155.625 132.583 155.333 119.708 154.75 108.625H202L201.5 117.938C190.042 117.438 177.896 117.188 165.062 117.188C165.312 123.646 165.438 132.375 165.438 143.375C176.521 143.375 186.396 143.125 195.062 142.625V151.938C185.812 151.562 175.938 151.375 165.438 151.375C165.438 162.083 165.625 172.125 166 181.5C179.833 181.5 193 181.188 205.5 180.562ZM271.75 189.938L262.438 190.25C262.104 188.458 261.938 186.562 261.938 184.562H261.25C256.875 189.312 250.375 191.688 241.75 191.688C233.833 191.688 227.521 188.812 222.812 183.062C218.146 177.312 215.812 170.375 215.812 162.25C215.812 153.042 218.417 145.104 223.625 138.438C228.833 131.771 236.167 128.438 245.625 128.438C252.375 128.438 257.208 129.812 260.125 132.562H260.625C260.625 122.229 260.333 112.083 259.75 102.125L271.625 101.688C270.833 112.271 270.438 126.125 270.438 143.25C270.438 160.667 270.875 176.229 271.75 189.938ZM261.688 177.625C261.688 164.667 261.333 152.188 260.625 140.188C257.25 137.396 253.042 136 248 136C240.958 136 235.688 138.354 232.188 143.062C228.688 147.729 226.938 153.604 226.938 160.688C226.938 167.021 228.583 172.354 231.875 176.688C235.208 181.021 239.812 183.188 245.688 183.188C253.062 183.188 258.396 181.333 261.688 177.625ZM341.062 189.938L331.375 190.312C330.792 187.979 330.5 186.062 330.5 184.562H329.875C324.333 189.229 317.604 191.562 309.688 191.562C302.479 191.562 297.229 189.833 293.938 186.375C290.688 182.875 289.062 175.854 289.062 165.312C289.062 163.812 289.104 161.583 289.188 158.625C289.271 155.667 289.312 153.646 289.312 152.562C289.312 146.438 288.958 139.229 288.25 130.938L299.875 130.5C299.375 138.542 299.125 145.417 299.125 151.125C299.125 164.25 299.958 172.812 301.625 176.812C303.333 180.771 307.146 182.75 313.062 182.75C319.729 182.75 325.229 181.083 329.562 177.75C329.562 154.583 329.354 138.979 328.938 130.938L340.188 130.5C339.854 138.333 339.688 149.167 339.688 163C339.688 171.875 340.146 180.854 341.062 189.938ZM402.438 180.438L401.812 188.812C398.438 190.729 393.917 191.688 388.25 191.688C377.458 191.688 369.208 188.708 363.5 182.75C357.792 176.792 354.938 169.604 354.938 161.188C354.938 152.271 357.938 144.604 363.938 138.188C369.938 131.771 377.875 128.562 387.75 128.562C392.708 128.562 396.75 129.062 399.875 130.062L398.188 139.875C393.812 138.25 389.375 137.438 384.875 137.438C378.958 137.438 374.25 139.5 370.75 143.625C367.25 147.75 365.5 152.917 365.5 159.125C365.5 165.875 367.583 171.5 371.75 176C375.917 180.5 381.812 182.75 389.438 182.75C392.562 182.75 396.896 181.979 402.438 180.438ZM461.812 190L452 190.375C451.5 188.333 451.25 186.396 451.25 184.562H450.625C445.5 189.229 438.521 191.562 429.688 191.562C424.896 191.562 420.771 190.167 417.312 187.375C413.854 184.542 412.125 180.521 412.125 175.312C412.125 168.896 414.833 163.75 420.25 159.875C425.667 155.958 435.729 153.896 450.438 153.688C450.562 152.688 450.625 151.542 450.625 150.25C450.625 145.125 449.25 141.708 446.5 140C443.792 138.292 439.667 137.438 434.125 137.438C427.583 137.438 421.146 138.25 414.812 139.875L415.875 131.25C422.125 129.458 429.312 128.562 437.438 128.562C444.854 128.562 450.583 130.104 454.625 133.188C458.667 136.229 460.688 141.438 460.688 148.812C460.688 150.771 460.583 154.333 460.375 159.5C460.208 164.625 460.125 168.042 460.125 169.75C460.125 177.333 460.688 184.083 461.812 190ZM450.75 177.875C450.542 171.542 450.438 165.854 450.438 160.812C442.604 160.812 436.646 161.396 432.562 162.562C425.729 164.646 422.312 168.625 422.312 174.5C422.312 180.167 426.312 183 434.312 183C441.188 183 446.667 181.292 450.75 177.875ZM512 181.375L511.25 189.5C507.958 190.708 504.854 191.312 501.938 191.312C494.438 191.312 489.312 189.417 486.562 185.625C483.812 181.792 482.438 174.958 482.438 165.125C482.438 158.75 482.479 150.438 482.562 140.188C480.229 140.188 476.792 140.312 472.25 140.562L472.625 131.5C476.583 131.75 480.125 131.875 483.25 131.875C483.25 129.375 483.458 123.438 483.875 114.062L493.688 113.062C492.979 121.812 492.625 128.083 492.625 131.875C496.708 131.875 502.708 131.667 510.625 131.25L510.188 140.562C502.688 140.312 496.667 140.188 492.125 140.188C492.042 146.479 492 153.562 492 161.438C492 170.021 492.896 175.708 494.688 178.5C496.521 181.25 499.896 182.625 504.812 182.625C506.438 182.625 508.833 182.208 512 181.375ZM535.062 190H523.75C524.333 181.667 524.625 172.146 524.625 161.438C524.625 149.396 523.896 139.292 522.438 131.125L534.938 129.438C534.438 138.146 534.188 148.812 534.188 161.438C534.188 171.438 534.479 180.958 535.062 190ZM537.688 111.875C537.688 114 537 115.854 535.625 117.438C534.25 118.979 532.312 119.75 529.812 119.75C527.688 119.75 526.021 119.083 524.812 117.75C523.646 116.375 523.062 114.729 523.062 112.812C523.062 110.729 523.771 108.917 525.188 107.375C526.604 105.833 528.562 105.062 531.062 105.062C533.104 105.062 534.708 105.75 535.875 107.125C537.083 108.458 537.688 110.042 537.688 111.875ZM608.688 158.5C608.688 169.167 605.625 177.5 599.5 183.5C593.375 189.458 586.167 192.438 577.875 192.438C570.125 192.438 563.458 189.792 557.875 184.5C552.333 179.208 549.562 171.75 549.562 162.125C549.562 151.375 552.625 142.979 558.75 136.938C564.917 130.896 572.146 127.875 580.438 127.875C588.188 127.875 594.833 130.562 600.375 135.938C605.917 141.271 608.688 148.792 608.688 158.5ZM597.875 160.688C597.875 154.188 596.229 148.417 592.938 143.375C589.688 138.292 585.042 135.75 579 135.75C573 135.75 568.375 138.146 565.125 142.938C561.917 147.729 560.312 153.292 560.312 159.625C560.312 166.167 561.938 171.958 565.188 177C568.479 182.042 573.167 184.562 579.25 184.562C585.25 184.562 589.854 182.167 593.062 177.375C596.271 172.542 597.875 166.979 597.875 160.688ZM676.062 190H664.688C665.604 179.042 666.062 167.083 666.062 154.125C666.062 147.708 664.75 143.333 662.125 141C659.542 138.625 655.833 137.438 651 137.438C645.083 137.438 639.625 139.583 634.625 143.875C634.625 158.083 634.708 173.458 634.875 190H623.5C624.208 175.833 624.562 165.583 624.562 159.25C624.562 149.5 623.646 140.042 621.812 130.875L632.812 129.312L634 136.938H634.5C640.667 131.354 647.271 128.562 654.312 128.562C661.229 128.562 666.583 130.104 670.375 133.188C674.167 136.229 676.062 141.667 676.062 149.5C676.062 150.292 676.021 151.854 675.938 154.188C675.854 156.521 675.812 158.083 675.812 158.875C675.812 165.833 675.896 176.208 676.062 190ZM128.062 287.188C128.062 295.271 124.625 301.521 117.75 305.938C111.042 310.229 101.833 312.375 90.125 312.375C86.875 312.375 80.5 312.25 71 312C71.5833 299.083 71.875 284.833 71.875 269.25C71.875 254.583 71.5833 241.708 71 230.625H78.5C79.9583 230.625 82.8958 230.562 87.3125 230.438C91.7292 230.312 94.9375 230.25 96.9375 230.25C114.271 230.25 122.938 236.229 122.938 248.188C122.938 257.521 118.833 263.729 110.625 266.812V267.438C122.25 269.521 128.062 276.104 128.062 287.188ZM117.5 288.25C117.5 278 108.417 272.875 90.25 272.875C86.9167 272.875 83.9792 273 81.4375 273.25C81.4375 284.375 81.6667 294.312 82.125 303.062C83.7083 303.438 86.5 303.625 90.5 303.625C100.542 303.625 107.667 302.312 111.875 299.688C115.625 297.312 117.5 293.5 117.5 288.25ZM112.438 251.312C112.438 242.688 106.625 238.375 95 238.375C89.1667 238.375 84.4375 238.688 80.8125 239.312C81.1458 242.312 81.3125 250.792 81.3125 264.75C83.3542 264.833 85.6042 264.875 88.0625 264.875C96.3125 264.875 102.312 263.938 106.062 262.062C110.312 259.979 112.438 256.396 112.438 251.312ZM189.438 312L179.625 312.375C179.125 310.333 178.875 308.396 178.875 306.562H178.25C173.125 311.229 166.146 313.562 157.312 313.562C152.521 313.562 148.396 312.167 144.938 309.375C141.479 306.542 139.75 302.521 139.75 297.312C139.75 290.896 142.458 285.75 147.875 281.875C153.292 277.958 163.354 275.896 178.062 275.688C178.188 274.688 178.25 273.542 178.25 272.25C178.25 267.125 176.875 263.708 174.125 262C171.417 260.292 167.292 259.438 161.75 259.438C155.208 259.438 148.771 260.25 142.438 261.875L143.5 253.25C149.75 251.458 156.938 250.562 165.062 250.562C172.479 250.562 178.208 252.104 182.25 255.188C186.292 258.229 188.312 263.438 188.312 270.812C188.312 272.771 188.208 276.333 188 281.5C187.833 286.625 187.75 290.042 187.75 291.75C187.75 299.333 188.312 306.083 189.438 312ZM178.375 299.875C178.167 293.542 178.062 287.854 178.062 282.812C170.229 282.812 164.271 283.396 160.188 284.562C153.354 286.646 149.938 290.625 149.938 296.5C149.938 302.167 153.938 305 161.938 305C168.812 305 174.292 303.292 178.375 299.875ZM250.812 302.438L250.188 310.812C246.812 312.729 242.292 313.688 236.625 313.688C225.833 313.688 217.583 310.708 211.875 304.75C206.167 298.792 203.312 291.604 203.312 283.188C203.312 274.271 206.312 266.604 212.312 260.188C218.312 253.771 226.25 250.562 236.125 250.562C241.083 250.562 245.125 251.062 248.25 252.062L246.562 261.875C242.188 260.25 237.75 259.438 233.25 259.438C227.333 259.438 222.625 261.5 219.125 265.625C215.625 269.75 213.875 274.917 213.875 281.125C213.875 287.875 215.958 293.5 220.125 298C224.292 302.5 230.188 304.75 237.812 304.75C240.938 304.75 245.271 303.979 250.812 302.438ZM316.812 312H302.125C302.125 310.542 298.083 304.979 290 295.312C281.708 285.354 276.5 280.375 274.375 280.375H273.938C273.938 289.292 274.167 299.833 274.625 312H263.625C264.167 296.75 264.438 281.208 264.438 265.375C264.438 249.25 263.833 235.479 262.625 224.062L274.625 223.438C274.167 232.438 273.938 249.917 273.938 275.875H274.375C275.75 275.875 280.062 272.375 287.312 265.375C294.604 258.333 298.25 254.083 298.25 252.625H312.062C312.062 253.958 308.792 257.417 302.25 263C296.125 268.208 290.521 272.5 285.438 275.875V276.375C290.604 280.292 297.25 287 305.375 296.5C313 305.458 316.812 310.625 316.812 312ZM384.5 244.75L383.5 253.375C375.75 253.375 371.479 254.625 370.688 257.125V257.75C373.354 261 374.688 264.708 374.688 268.875C374.688 275.375 372.542 280.75 368.25 285C364 289.208 357.417 291.312 348.5 291.312C344.542 291.312 341.396 290.896 339.062 290.062C337.021 291.521 336 293.333 336 295.5C336 298.167 337.208 299.938 339.625 300.812C342.708 301.979 349.146 302.562 358.938 302.562C374.771 302.562 382.688 307.812 382.688 318.312C382.688 325.812 379.604 332.021 373.438 336.938C367.271 341.854 359.292 344.312 349.5 344.312C339.458 344.312 332.292 342.479 328 338.812C323.75 335.188 321.625 330.812 321.625 325.688C321.625 321.021 322.667 317.271 324.75 314.438C326.875 311.604 329.5 309.854 332.625 309.188V308.625C329.333 307.042 327.688 304 327.688 299.5C327.688 295.417 329.771 291.833 333.938 288.75V288.25C331.729 287.167 329.625 285.333 327.625 282.75C325.625 280.167 324.625 276.958 324.625 273.125C324.625 266.5 326.812 261.104 331.188 256.938C335.562 252.771 341.896 250.688 350.188 250.688C356.979 250.688 362.312 251.917 366.188 254.375H366.875C368.208 247.333 371.708 243.812 377.375 243.812C380.458 243.812 382.833 244.125 384.5 244.75ZM373.312 322.562C373.312 318.646 371.875 315.875 369 314.25C366.167 312.667 360.812 311.875 352.938 311.875C347.604 311.875 342.729 311.625 338.312 311.125C333.229 313.583 330.688 317.188 330.688 321.938C330.688 332.104 337.354 337.188 350.688 337.188C357.646 337.188 363.146 335.833 367.188 333.125C371.271 330.417 373.312 326.896 373.312 322.562ZM364.625 271.438C364.625 266.854 363.167 263.354 360.25 260.938C357.375 258.479 353.708 257.25 349.25 257.25C345.042 257.25 341.521 258.438 338.688 260.812C335.854 263.146 334.438 266.479 334.438 270.812C334.438 275.354 335.875 278.812 338.75 281.188C341.667 283.562 345.396 284.75 349.938 284.75C354.104 284.75 357.583 283.604 360.375 281.312C363.208 278.979 364.625 275.688 364.625 271.438ZM432.625 252.625L429.812 262.562C426.562 261.271 423.542 260.625 420.75 260.625C412.917 260.625 407.833 264.354 405.5 271.812C405.5 290.979 405.625 304.375 405.875 312H394.812C395.479 298.792 395.812 288.542 395.812 281.25C395.812 271.375 394.833 261.917 392.875 252.875L403.812 251.312C404.604 255.896 405 258.958 405 260.5H405.5C410 253.875 415.25 250.562 421.25 250.562C424.417 250.562 428.208 251.25 432.625 252.625ZM497.312 280.5C497.312 291.167 494.25 299.5 488.125 305.5C482 311.458 474.792 314.438 466.5 314.438C458.75 314.438 452.083 311.792 446.5 306.5C440.958 301.208 438.188 293.75 438.188 284.125C438.188 273.375 441.25 264.979 447.375 258.938C453.542 252.896 460.771 249.875 469.062 249.875C476.812 249.875 483.458 252.562 489 257.938C494.542 263.271 497.312 270.792 497.312 280.5ZM486.5 282.688C486.5 276.188 484.854 270.417 481.562 265.375C478.312 260.292 473.667 257.75 467.625 257.75C461.625 257.75 457 260.146 453.75 264.938C450.542 269.729 448.938 275.292 448.938 281.625C448.938 288.167 450.562 293.958 453.812 299C457.104 304.042 461.792 306.562 467.875 306.562C473.875 306.562 478.479 304.167 481.688 299.375C484.896 294.542 486.5 288.979 486.5 282.688ZM564.438 311.938L554.75 312.312C554.167 309.979 553.875 308.062 553.875 306.562H553.25C547.708 311.229 540.979 313.562 533.062 313.562C525.854 313.562 520.604 311.833 517.312 308.375C514.062 304.875 512.438 297.854 512.438 287.312C512.438 285.812 512.479 283.583 512.562 280.625C512.646 277.667 512.688 275.646 512.688 274.562C512.688 268.438 512.333 261.229 511.625 252.938L523.25 252.5C522.75 260.542 522.5 267.417 522.5 273.125C522.5 286.25 523.333 294.812 525 298.812C526.708 302.771 530.521 304.75 536.438 304.75C543.104 304.75 548.604 303.083 552.938 299.75C552.938 276.583 552.729 260.979 552.312 252.938L563.562 252.5C563.229 260.333 563.062 271.167 563.062 285C563.062 293.875 563.521 302.854 564.438 311.938ZM633.312 312H621.938C622.854 301.042 623.312 289.083 623.312 276.125C623.312 269.708 622 265.333 619.375 263C616.792 260.625 613.083 259.438 608.25 259.438C602.333 259.438 596.875 261.583 591.875 265.875C591.875 280.083 591.958 295.458 592.125 312H580.75C581.458 297.833 581.812 287.583 581.812 281.25C581.812 271.5 580.896 262.042 579.062 252.875L590.062 251.312L591.25 258.938H591.75C597.917 253.354 604.521 250.562 611.562 250.562C618.479 250.562 623.833 252.104 627.625 255.188C631.417 258.229 633.312 263.667 633.312 271.5C633.312 272.292 633.271 273.854 633.188 276.188C633.104 278.521 633.062 280.083 633.062 280.875C633.062 287.833 633.146 298.208 633.312 312ZM703.625 311.938L694.312 312.25C693.979 310.458 693.812 308.562 693.812 306.562H693.125C688.75 311.312 682.25 313.688 673.625 313.688C665.708 313.688 659.396 310.812 654.688 305.062C650.021 299.312 647.688 292.375 647.688 284.25C647.688 275.042 650.292 267.104 655.5 260.438C660.708 253.771 668.042 250.438 677.5 250.438C684.25 250.438 689.083 251.812 692 254.562H692.5C692.5 244.229 692.208 234.083 691.625 224.125L703.5 223.688C702.708 234.271 702.312 248.125 702.312 265.25C702.312 282.667 702.75 298.229 703.625 311.938ZM693.562 299.625C693.562 286.667 693.208 274.188 692.5 262.188C689.125 259.396 684.917 258 679.875 258C672.833 258 667.562 260.354 664.062 265.062C660.562 269.729 658.812 275.604 658.812 282.688C658.812 289.021 660.458 294.354 663.75 298.688C667.083 303.021 671.688 305.188 677.562 305.188C684.938 305.188 690.271 303.333 693.562 299.625Z" fill="#0057FF"/>
<path d="M29.0978 289.717C25.2936 270.994 31.8654 250.96 47.2713 230.699C62.6758 210.439 86.8402 190.057 117.976 170.717C180.24 132.04 270.194 97.6449 373.076 76.7413C475.958 55.8378 572.202 52.401 644.623 63.7125C680.837 69.3689 711.04 78.7048 733.129 91.3461C755.22 103.989 769.089 119.869 772.893 138.593C776.698 157.316 770.126 177.35 754.72 197.611C739.315 217.87 715.151 238.252 684.015 257.593C621.751 296.27 531.797 330.665 428.915 351.568C326.033 372.472 229.79 375.908 157.369 364.597C121.154 358.941 90.9514 349.605 68.8622 336.963C46.7709 324.321 32.902 308.44 29.0978 289.717Z" stroke="#0057FF" stroke-width="2"/>
</svg>
