<svg width="283" height="762" viewBox="0 0 283 762" fill="none" xmlns="http://www.w3.org/2000/svg">
<path d="M142.386 760.194C123.28 760.247 104.927 749.868 88.0867 730.782C71.2478 711.699 56.0091 684.001 43.161 649.673C17.4675 581.025 1.41157 486.068 1.12343 381.084C0.835291 276.1 16.3698 181.056 41.686 112.268C54.3455 77.8699 69.432 50.0895 86.1658 30.9137C102.901 11.736 121.197 1.25653 140.302 1.20409C159.408 1.15165 177.761 11.5305 194.601 30.616C211.44 49.6998 226.679 77.3969 239.527 111.725C265.22 180.373 281.276 275.331 281.565 380.314C281.853 485.298 266.318 580.342 241.002 649.13C228.342 683.529 213.256 711.309 196.522 730.485C179.787 749.662 161.491 760.142 142.386 760.194Z" stroke="#0057FF" stroke-width="2"/>
</svg>
