<svg width="415" height="384" viewBox="0 0 415 384" fill="none" xmlns="http://www.w3.org/2000/svg">
<path d="M116.188 107H103C103 104.208 100.375 95.4375 95.125 80.6875H59.0625C53.8958 95.2292 51.3125 104 51.3125 107H38.6875C38.6875 105.458 44.0625 92.1458 54.8125 67.0625C65.5625 41.9375 70.9375 28.125 70.9375 25.625H85.4375C85.4375 28.0833 90.5625 41.6875 100.812 66.4375C111.062 91.1875 116.188 104.708 116.188 107ZM92.25 72.5C82.4583 48.0417 77.5625 35.0417 77.5625 33.5H76.875C76.875 34.7917 71.8125 47.7917 61.6875 72.5H92.25ZM181.812 74.875C181.812 84 179.208 91.9167 174 98.625C168.792 105.333 161.667 108.688 152.625 108.688C144.958 108.688 139.75 107.312 137 104.562H136.5L134.938 107H125.75C126.292 92.625 126.562 77.0833 126.562 60.375C126.562 45.2917 125.875 31.5208 124.5 19.0625L136.875 18.4375C136.458 25.6042 136.25 36.9583 136.25 52.5H136.75C140.833 47.7917 147.312 45.4375 156.188 45.4375C163.896 45.4375 170.083 48.3125 174.75 54.0625C179.458 59.8125 181.812 66.75 181.812 74.875ZM170.688 76.375C170.688 70.0833 169.042 64.7708 165.75 60.4375C162.458 56.1042 157.917 53.9375 152.125 53.9375C144.625 53.9375 139.25 56.2083 136 60.75C136 75.5833 136.333 87.6042 137 96.8125C140.375 99.6458 144.771 101.062 150.188 101.062C157.021 101.062 162.146 98.6667 165.562 93.875C168.979 89.0833 170.688 83.25 170.688 76.375ZM253.312 75.5C253.312 86.1667 250.25 94.5 244.125 100.5C238 106.458 230.792 109.438 222.5 109.438C214.75 109.438 208.083 106.792 202.5 101.5C196.958 96.2083 194.188 88.75 194.188 79.125C194.188 68.375 197.25 59.9792 203.375 53.9375C209.542 47.8958 216.771 44.875 225.062 44.875C232.812 44.875 239.458 47.5625 245 52.9375C250.542 58.2708 253.312 65.7917 253.312 75.5ZM242.5 77.6875C242.5 71.1875 240.854 65.4167 237.562 60.375C234.312 55.2917 229.667 52.75 223.625 52.75C217.625 52.75 213 55.1458 209.75 59.9375C206.542 64.7292 204.938 70.2917 204.938 76.625C204.938 83.1667 206.562 88.9583 209.812 94C213.104 99.0417 217.792 101.562 223.875 101.562C229.875 101.562 234.479 99.1667 237.688 94.375C240.896 89.5417 242.5 83.9792 242.5 77.6875Z" fill="#0057FF"/>
<path d="M176.492 381H158.133C158.133 366.482 157.124 345.486 155.105 318.012C153.087 290.538 152.013 274.066 151.883 268.598H150.906C144.396 289.757 136.128 312.738 126.102 337.543C116.141 362.283 111.16 376.768 111.16 381H97.9766C97.9766 376.443 93.3216 361.697 84.0117 336.762C74.7018 311.762 68.8099 295.03 66.3359 286.566C63.862 278.103 62.1693 272.113 61.2578 268.598H60.2812C60.0859 277.517 58.7839 295.518 56.375 322.602C54.0312 349.685 52.8594 369.151 52.8594 381H36.0625C36.0625 380.349 38.276 362.445 42.7031 327.289C47.1302 292.068 49.3438 267.589 49.3438 253.852H75.0273C75.0273 261.013 80.2357 278.917 90.6523 307.562C101.069 336.208 106.277 353.559 106.277 359.613H107.254C107.254 353.559 113.113 336.176 124.832 307.465C136.551 278.689 142.41 260.818 142.41 253.852H167.508C167.508 267.589 169.005 291.938 172 326.898C174.995 361.859 176.492 379.893 176.492 381ZM285.672 323.676C285.672 326.41 285.542 330.186 285.281 335.004L218.191 336.176C218.842 345.681 222.521 353.656 229.227 360.102C235.932 366.482 244.819 369.672 255.887 369.672C265.783 369.672 275.06 368.467 283.719 366.059L282.059 379.828C275.678 382.367 266.466 383.637 254.422 383.637C237.495 383.637 224.572 379.014 215.652 369.77C206.798 360.525 202.371 349.262 202.371 335.98C202.371 321.788 206.408 309.581 214.48 299.359C222.618 289.073 233.523 283.93 247.195 283.93C259.76 283.93 269.298 287.641 275.809 295.062C282.384 302.484 285.672 312.022 285.672 323.676ZM269.363 323.871C269.363 305.577 261.714 296.43 246.414 296.43C230.789 296.43 221.577 305.935 218.777 324.945L269.363 323.871Z" fill="#0057FF"/>
<path d="M253.938 213.938L244.25 214.312C243.667 211.979 243.375 210.062 243.375 208.562H242.75C237.208 213.229 230.479 215.562 222.562 215.562C215.354 215.562 210.104 213.833 206.812 210.375C203.562 206.875 201.938 199.854 201.938 189.312C201.938 187.812 201.979 185.583 202.062 182.625C202.146 179.667 202.188 177.646 202.188 176.562C202.188 170.438 201.833 163.229 201.125 154.938L212.75 154.5C212.25 162.542 212 169.417 212 175.125C212 188.25 212.833 196.812 214.5 200.812C216.208 204.771 220.021 206.75 225.938 206.75C232.604 206.75 238.104 205.083 242.438 201.75C242.438 178.583 242.229 162.979 241.812 154.938L253.062 154.5C252.729 162.333 252.562 173.167 252.562 187C252.562 195.875 253.021 204.854 253.938 213.938ZM304.125 205.375L303.375 213.5C300.083 214.708 296.979 215.312 294.062 215.312C286.562 215.312 281.438 213.417 278.688 209.625C275.938 205.792 274.562 198.958 274.562 189.125C274.562 182.75 274.604 174.438 274.688 164.188C272.354 164.188 268.917 164.312 264.375 164.562L264.75 155.5C268.708 155.75 272.25 155.875 275.375 155.875C275.375 153.375 275.583 147.438 276 138.062L285.812 137.062C285.104 145.812 284.75 152.083 284.75 155.875C288.833 155.875 294.833 155.667 302.75 155.25L302.312 164.562C294.812 164.312 288.792 164.188 284.25 164.188C284.167 170.479 284.125 177.562 284.125 185.438C284.125 194.021 285.021 199.708 286.812 202.5C288.646 205.25 292.021 206.625 296.938 206.625C298.562 206.625 300.958 206.208 304.125 205.375Z" fill="#0057FF"/>
<line x1="-1.74846e-07" y1="173" x2="174" y2="173" stroke="#0057FF" stroke-width="4"/>
</svg>
