<svg width="257" height="254" viewBox="0 0 257 254" fill="none" xmlns="http://www.w3.org/2000/svg">
<path d="M246 128C246 193.17 193.17 246 128 246M246 128C246 62.8304 193.17 10 128 10M246 128H10M128 246C62.8304 246 10 193.17 10 128M128 246C167.212 246 199 193.17 199 128C199 62.8304 167.212 10 128 10M128 246C88.7878 246 57 193.17 57 128C57 62.8304 88.7878 10 128 10M128 246C141.255 246 152 193.17 152 128C152 62.8304 141.255 10 128 10M128 246C114.745 246 104 193.17 104 128C104 62.8304 114.745 10 128 10M10 128C10 62.8304 62.8304 10 128 10M40 50H216.5M39.5 206H216.5" stroke="#535151" stroke-width="4"/>
</svg>
